<svg xmlns="http://www.w3.org/2000/svg" xmlns:xlink="http://www.w3.org/1999/xlink" width="136" zoomAndPan="magnify" viewBox="0 0 102 34.499999" height="46" preserveAspectRatio="xMidYMid meet" version="1.0"><defs><g/><clipPath id="6f7735c9c5"><path d="M 12 0 L 27 0 L 27 34.007812 L 12 34.007812 Z M 12 0 " clip-rule="nonzero"/></clipPath><clipPath id="1b9b47ffec"><path d="M 9 8 L 34 8 L 34 34.007812 L 9 34.007812 Z M 9 8 " clip-rule="nonzero"/></clipPath></defs><g clip-path="url(#6f7735c9c5)"><path fill="#00acb1" d="M 14.214844 0 L 25.164062 0 C 25.351562 0 25.53125 0.0351562 25.707031 0.109375 C 25.878906 0.179688 26.035156 0.28125 26.167969 0.414062 C 26.300781 0.550781 26.402344 0.703125 26.476562 0.875 C 26.546875 1.050781 26.582031 1.230469 26.582031 1.417969 L 26.582031 32.648438 C 26.582031 32.835938 26.546875 33.015625 26.476562 33.191406 C 26.402344 33.363281 26.300781 33.519531 26.167969 33.652344 C 26.035156 33.785156 25.878906 33.886719 25.707031 33.957031 C 25.53125 34.03125 25.351562 34.066406 25.164062 34.066406 L 14.214844 34.066406 C 14.023438 34.066406 13.84375 34.03125 13.671875 33.957031 C 13.496094 33.886719 13.34375 33.785156 13.210938 33.652344 C 13.078125 33.519531 12.972656 33.363281 12.902344 33.191406 C 12.828125 33.015625 12.792969 32.835938 12.792969 32.648438 L 12.792969 1.417969 C 12.792969 1.230469 12.828125 1.050781 12.902344 0.875 C 12.972656 0.703125 13.078125 0.550781 13.210938 0.414062 C 13.34375 0.28125 13.496094 0.179688 13.671875 0.109375 C 13.84375 0.0351562 14.023438 0 14.214844 0 Z M 14.214844 0 " fill-opacity="1" fill-rule="nonzero"/></g><path fill="#00acb1" d="M 2.859375 10.542969 L 12.996094 10.542969 C 13.183594 10.542969 13.367188 10.582031 13.539062 10.652344 C 13.714844 10.722656 13.867188 10.828125 14 10.960938 C 14.132812 11.09375 14.234375 11.246094 14.308594 11.421875 C 14.378906 11.59375 14.417969 11.777344 14.417969 11.964844 L 14.417969 22.914062 C 14.417969 23.101562 14.378906 23.28125 14.308594 23.457031 C 14.234375 23.632812 14.132812 23.785156 14 23.917969 C 13.867188 24.050781 13.714844 24.152344 13.539062 24.226562 C 13.367188 24.296875 13.183594 24.332031 12.996094 24.332031 L 2.859375 24.332031 C 2.667969 24.332031 2.488281 24.296875 2.316406 24.226562 C 2.140625 24.152344 1.988281 24.050781 1.855469 23.917969 C 1.722656 23.785156 1.617188 23.632812 1.546875 23.457031 C 1.472656 23.28125 1.4375 23.101562 1.4375 22.914062 L 1.4375 11.964844 C 1.4375 11.777344 1.472656 11.59375 1.546875 11.421875 C 1.617188 11.246094 1.722656 11.09375 1.855469 10.960938 C 1.988281 10.828125 2.140625 10.722656 2.316406 10.652344 C 2.488281 10.582031 2.667969 10.542969 2.859375 10.542969 Z M 2.859375 10.542969 " fill-opacity="1" fill-rule="nonzero"/><g clip-path="url(#1b9b47ffec)"><path fill="#ffffff" d="M 30.96875 8.753906 C 30.632812 8.21875 29.910156 8.304688 29.6875 8.886719 C 28.65625 11.558594 26.382812 13.46875 23.527344 13.886719 L 19.921875 14.421875 C 15.148438 15.125 11.855469 19.632812 12.574219 24.484375 C 12.621094 24.804688 12.703125 25.105469 12.777344 25.410156 C 15.34375 22.894531 19.230469 20.507812 25.113281 19.640625 C 25.507812 19.582031 25.882812 19.863281 25.941406 20.265625 C 26 20.667969 25.722656 21.042969 25.328125 21.101562 C 14.003906 22.777344 10.246094 30.535156 9.574219 33.34375 C 9.386719 34.132812 9.863281 34.929688 10.644531 35.128906 C 11.425781 35.332031 12.210938 34.847656 12.410156 34.058594 C 12.453125 33.882812 13.027344 31.730469 15.035156 29.433594 C 16.789062 31.230469 19.847656 32.734375 23.433594 31.804688 C 30.429688 30.238281 34.453125 23.0625 33.289062 15.171875 C 32.949219 12.875 32.113281 10.566406 30.96875 8.753906 Z M 30.96875 8.753906 " fill-opacity="1" fill-rule="nonzero"/></g><g fill="#ffffff" fill-opacity="1"><g transform="translate(35.769385, 22.693838)"><g><path d="M 8.425781 0.0273438 L 8.96875 -0.015625 L 9.242188 0.015625 L 9.683594 0 L 10.082031 -0.0703125 L 10.125 -0.414062 L 10.027344 -0.742188 L 9.8125 -1.269531 L 9.425781 -2.015625 L 9.226562 -2.542969 L 8.941406 -3.054688 L 8.398438 -4.355469 L 8.253906 -4.570312 L 8.113281 -4.839844 L 8.027344 -5.15625 L 7.898438 -5.371094 L 7.8125 -5.597656 L 7.511719 -6.125 L 7.414062 -6.425781 L 6.46875 -8.410156 L 6.382812 -8.699219 L 6.226562 -8.953125 L 6.140625 -9.210938 L 5.871094 -9.710938 L 5.628906 -9.96875 L 5.15625 -10.113281 L 4.699219 -9.953125 L 4.441406 -9.710938 L 4.3125 -9.46875 L 4.214844 -9.183594 L 4.085938 -8.984375 L 3.511719 -7.667969 L 3.355469 -7.457031 L 3.285156 -7.167969 L 3.128906 -6.898438 L 3.042969 -6.640625 L 1.585938 -3.585938 L 1.5 -3.269531 L 1.355469 -3.054688 L 1.257812 -2.769531 L 1 -2.3125 L 0.785156 -1.742188 L 0.628906 -1.542969 L 0.558594 -1.285156 L 0.269531 -0.714844 L 0.1875 -0.429688 L 0.257812 -0.0703125 L 0.542969 0.015625 L 1.101562 -0.015625 L 1.386719 0.015625 L 2.183594 -0.015625 L 2.511719 -0.113281 L 2.785156 -0.371094 L 3.042969 -0.84375 L 3.3125 -1.113281 L 3.613281 -1.269531 L 3.882812 -1.226562 L 4.484375 -1.285156 L 4.742188 -1.242188 L 6.140625 -1.257812 L 6.398438 -1.226562 L 6.710938 -1.269531 L 7.027344 -1.113281 L 7.296875 -0.886719 L 7.425781 -0.613281 L 7.511719 -0.355469 L 7.796875 -0.144531 L 8.125 0 Z M 5.183594 -3.527344 L 4.898438 -3.585938 L 4.570312 -3.554688 L 4.339844 -3.65625 L 4.328125 -3.925781 L 5 -5.46875 L 5.15625 -5.597656 L 5.355469 -5.484375 L 6.027344 -3.914062 L 5.96875 -3.65625 L 5.753906 -3.542969 Z M 5.183594 -3.527344 "/></g></g></g><g fill="#ffffff" fill-opacity="1"><g transform="translate(46.13249, 22.693838)"><g><path d="M 1.070312 -0.441406 L 1.199219 -0.15625 L 1.472656 0.015625 L 1.941406 -0.0273438 L 2.371094 0.015625 L 4.441406 -0.015625 L 4.726562 0.0273438 L 6.199219 -0.0429688 L 6.457031 -0.0859375 L 7.253906 -0.3125 L 7.511719 -0.441406 L 8.082031 -0.898438 L 8.46875 -1.429688 L 8.613281 -1.714844 L 8.699219 -1.984375 L 8.8125 -2.257812 L 8.839844 -3.414062 L 8.683594 -3.925781 L 8.425781 -4.511719 L 8.242188 -4.726562 L 8.011719 -4.925781 L 7.871094 -5.253906 L 7.96875 -5.527344 L 8.242188 -6.085938 L 8.410156 -6.597656 L 8.425781 -7.082031 L 8.398438 -7.527344 L 8.285156 -8.039062 L 8.183594 -8.339844 L 7.710938 -8.996094 L 7.496094 -9.199219 L 7.285156 -9.339844 L 7.082031 -9.496094 L 6.839844 -9.640625 L 6.570312 -9.769531 L 6.328125 -9.855469 L 5.769531 -9.984375 L 4.296875 -10.027344 L 4.042969 -9.96875 L 3.484375 -10.039062 L 3.226562 -9.984375 L 1.5 -10.011719 L 1.183594 -9.867188 L 1.042969 -9.570312 L 1.042969 -9.253906 L 1.070312 -8.996094 L 1.058594 -8.699219 L 1.070312 -8.441406 L 1.042969 -7.597656 L 1.085938 -7 L 1.027344 -4.269531 L 1.070312 -3.84375 L 1.042969 -0.714844 Z M 4 -6.097656 L 3.699219 -6.269531 L 3.542969 -6.667969 L 3.527344 -7.15625 L 3.699219 -7.570312 L 3.96875 -7.742188 L 5.441406 -7.640625 L 5.667969 -7.527344 L 5.785156 -7.296875 L 5.828125 -6.871094 L 5.726562 -6.457031 L 5.511719 -6.285156 L 5.097656 -6.140625 Z M 3.957031 -2.285156 L 3.699219 -2.386719 L 3.511719 -2.671875 L 3.554688 -3.527344 L 3.683594 -3.769531 L 3.925781 -3.957031 L 4.199219 -3.914062 L 4.5 -3.941406 L 5.839844 -3.8125 L 6.085938 -3.714844 L 6.226562 -3.457031 L 6.3125 -3.097656 L 6.242188 -2.683594 L 6.085938 -2.484375 L 5.839844 -2.328125 L 5.054688 -2.257812 Z M 3.957031 -2.285156 "/></g></g></g><g fill="#ffffff" fill-opacity="1"><g transform="translate(55.553493, 22.693838)"><g><path d="M 4.96875 0.113281 L 5.683594 0.171875 L 6.683594 0.101562 L 7.527344 -0.0703125 L 7.785156 -0.214844 L 8.082031 -0.3125 L 8.328125 -0.429688 L 9.027344 -0.929688 L 9.425781 -1.328125 L 9.753906 -1.757812 L 10.054688 -2.269531 L 10.425781 -3.355469 L 10.339844 -3.613281 L 10.054688 -3.800781 L 9.253906 -3.742188 L 8.96875 -3.785156 L 8.683594 -3.769531 L 8.398438 -3.785156 L 8.070312 -3.613281 L 7.839844 -3.386719 L 7.699219 -3.113281 L 7.371094 -2.742188 L 7.140625 -2.542969 L 6.925781 -2.457031 L 6.425781 -2.183594 L 5.667969 -2.140625 L 5.253906 -2.183594 L 4.742188 -2.371094 L 4.242188 -2.628906 L 3.828125 -3 L 3.511719 -3.5 L 3.414062 -3.785156 L 3.3125 -3.984375 L 3.242188 -4.242188 L 3.199219 -4.554688 L 3.199219 -5.425781 L 3.300781 -6 L 3.511719 -6.511719 L 3.65625 -6.785156 L 4 -7.183594 L 4.339844 -7.457031 L 4.726562 -7.667969 L 5.683594 -7.796875 L 6.296875 -7.769531 L 6.742188 -7.640625 L 7 -7.539062 L 7.199219 -7.382812 L 7.613281 -6.96875 L 7.769531 -6.753906 L 8.039062 -6.484375 L 8.367188 -6.328125 L 8.625 -6.355469 L 8.925781 -6.339844 L 9.210938 -6.355469 L 9.613281 -6.3125 L 10.039062 -6.355469 L 10.28125 -6.46875 L 10.382812 -6.753906 L 10.296875 -7.070312 L 10.195312 -7.328125 L 10.113281 -7.625 L 9.953125 -7.855469 L 9.824219 -8.082031 L 9.625 -8.328125 L 9.46875 -8.597656 L 9.070312 -9.011719 L 8.097656 -9.625 L 6.726562 -10.082031 L 6.457031 -10.097656 L 6.167969 -10.140625 L 5.285156 -10.15625 L 3.898438 -9.882812 L 2.84375 -9.382812 L 2.429688 -9.070312 L 1.8125 -8.511719 L 1.429688 -8.027344 L 1.15625 -7.613281 L 0.800781 -6.8125 L 0.65625 -6.226562 L 0.515625 -5 L 0.601562 -3.957031 L 0.800781 -3.140625 L 1.414062 -1.898438 L 2 -1.269531 L 2.640625 -0.714844 L 3.257812 -0.386719 L 3.898438 -0.113281 L 4.15625 -0.0585938 L 4.441406 0.0429688 L 4.699219 0.101562 Z M 4.96875 0.113281 "/></g></g></g><g fill="#ffffff" fill-opacity="1"><g transform="translate(66.444746, 22.693838)"><g><path d="M 0.515625 -4.371094 L 0.644531 -4.097656 L 0.898438 -3.925781 L 1.199219 -3.941406 L 1.5 -3.914062 L 1.769531 -3.96875 L 2.34375 -3.925781 L 2.585938 -3.96875 L 3.554688 -3.96875 L 3.84375 -3.925781 L 4.683594 -3.941406 L 5.113281 -4.085938 L 5.285156 -4.382812 L 5.253906 -5.542969 L 5.15625 -5.855469 L 4.871094 -6.011719 L 3.425781 -6 L 3.15625 -6.054688 L 1.5 -6.027344 L 1.214844 -6.054688 L 0.941406 -6.027344 L 0.644531 -5.855469 L 0.515625 -5.585938 Z M 0.515625 -4.371094 "/></g></g></g><g fill="#ffffff" fill-opacity="1"><g transform="translate(72.297188, 22.693838)"><g><path d="M 1.085938 -0.515625 L 1.183594 -0.144531 L 1.457031 0 L 1.742188 0.0273438 L 2.34375 -0.015625 L 2.898438 0.015625 L 3.441406 -0.015625 L 3.714844 0.0273438 L 4.027344 0 L 6.855469 0.015625 L 7.125 -0.128906 L 7.285156 -0.570312 L 7.269531 -1.726562 L 7.140625 -2.15625 L 6.882812 -2.328125 L 6.582031 -2.300781 L 6.3125 -2.242188 L 6.011719 -2.285156 L 5.425781 -2.269531 L 5.140625 -2.328125 L 4.882812 -2.285156 L 4.328125 -2.3125 L 4.027344 -2.285156 L 3.742188 -2.398438 L 3.628906 -2.683594 L 3.640625 -7.527344 L 3.613281 -7.871094 L 3.640625 -8.441406 L 3.597656 -9.253906 L 3.613281 -9.527344 L 3.46875 -9.839844 L 3.183594 -10.011719 L 2.628906 -10.011719 L 2.34375 -9.953125 L 1.769531 -10.011719 L 1.5 -9.96875 L 1.199219 -9.855469 L 1.070312 -9.539062 L 1.070312 -7.539062 L 1.042969 -7.269531 L 1.070312 -6.984375 L 1.027344 -6.457031 L 1.042969 -6.140625 L 1.070312 -5.871094 Z M 1.085938 -0.515625 "/></g></g></g><g fill="#ffffff" fill-opacity="1"><g transform="translate(79.976734, 22.693838)"><g><path d="M 0.1875 -0.386719 L 0.257812 -0.0859375 L 0.542969 -0.015625 L 1.800781 -0.015625 L 2.171875 0.0273438 L 2.5 -0.113281 L 2.757812 -0.371094 L 3 -0.855469 L 3.242188 -1.128906 L 3.585938 -1.269531 L 3.871094 -1.242188 L 4.671875 -1.257812 L 4.96875 -1.214844 L 5.296875 -1.257812 L 5.554688 -1.257812 L 5.855469 -1.226562 L 6.527344 -1.257812 L 7 -1.101562 L 7.296875 -0.871094 L 7.371094 -0.613281 L 7.527344 -0.355469 L 7.769531 -0.128906 L 8.140625 0.015625 L 8.398438 -0.015625 L 8.898438 0.0273438 L 9.78125 0 L 10.039062 -0.0859375 L 10.097656 -0.386719 L 10.011719 -0.742188 L 9.910156 -1 L 9.726562 -1.242188 L 9.640625 -1.527344 L 9.496094 -1.742188 L 9.410156 -2.015625 L 9.167969 -2.527344 L 9.070312 -2.800781 L 8.925781 -3.042969 L 8.726562 -3.570312 L 8.570312 -3.800781 L 8.453125 -4.085938 L 8.328125 -4.328125 L 8.226562 -4.613281 L 8.097656 -4.828125 L 8.011719 -5.113281 L 7.855469 -5.371094 L 7.742188 -5.613281 L 7.597656 -5.855469 L 7.527344 -6.125 L 7.242188 -6.625 L 7.15625 -6.898438 L 6.898438 -7.441406 L 6.828125 -7.667969 L 6.613281 -8.167969 L 6.328125 -8.699219 L 6.097656 -9.242188 L 5.96875 -9.453125 L 5.882812 -9.726562 L 5.628906 -9.996094 L 5.140625 -10.125 L 4.683594 -9.984375 L 4.414062 -9.726562 L 4.328125 -9.46875 L 3.714844 -8.183594 L 3.554688 -7.925781 L 2.757812 -6.125 L 2.683594 -5.882812 L 2.527344 -5.628906 L 2.300781 -5.113281 L 2.085938 -4.742188 L 1.984375 -4.46875 L 1.785156 -4.097656 L 1.699219 -3.800781 L 1.570312 -3.570312 L 1.472656 -3.285156 L 1.070312 -2.542969 L 0.65625 -1.5 L 0.484375 -1.269531 L 0.355469 -0.984375 Z M 4.597656 -3.527344 L 4.328125 -3.640625 L 4.285156 -3.925781 L 4.855469 -5.226562 L 4.984375 -5.457031 L 5.171875 -5.597656 L 5.339844 -5.484375 L 5.527344 -4.925781 L 5.683594 -4.683594 L 5.742188 -4.457031 L 5.882812 -4.171875 L 5.984375 -3.914062 L 5.957031 -3.65625 L 5.710938 -3.542969 Z M 4.597656 -3.527344 "/></g></g></g><g fill="#ffffff" fill-opacity="1"><g transform="translate(90.339838, 22.693838)"><g><path d="M 1.042969 -0.429688 L 1.199219 -0.101562 L 1.472656 0.0273438 L 6.199219 -0.0273438 L 6.742188 -0.101562 L 7.210938 -0.285156 L 7.753906 -0.601562 L 7.941406 -0.742188 L 8.167969 -0.957031 L 8.496094 -1.429688 L 8.625 -1.699219 L 8.683594 -1.941406 L 8.796875 -2.226562 L 8.8125 -3.371094 L 8.753906 -3.640625 L 8.65625 -3.941406 L 8.398438 -4.441406 L 8.199219 -4.683594 L 7.984375 -4.898438 L 7.855469 -5.210938 L 7.914062 -5.5 L 8.070312 -5.785156 L 8.242188 -6.027344 L 8.441406 -7.054688 L 8.425781 -7.46875 L 8.269531 -7.996094 L 8.125 -8.269531 L 8.039062 -8.539062 L 7.699219 -8.996094 L 7.496094 -9.199219 L 7.070312 -9.496094 L 6.542969 -9.78125 L 5.742188 -9.96875 L 1.441406 -9.996094 L 1.15625 -9.867188 L 1.027344 -9.570312 L 1.058594 -8.953125 L 1.027344 -8.539062 L 1.085938 -7.582031 L 1.042969 -7.285156 L 1.070312 -6.984375 L 1.042969 -6.710938 L 1.058594 -6.414062 L 1.027344 -6.140625 L 1.027344 -5 L 1.070312 -4.699219 L 1.042969 -4.425781 L 1.042969 -3.855469 L 1.070312 -3.585938 L 1.042969 -2.414062 L 1.085938 -1.828125 L 1.027344 -0.972656 Z M 3.96875 -6.125 L 3.628906 -6.242188 L 3.484375 -6.527344 L 3.542969 -6.769531 L 3.542969 -7.039062 L 3.511719 -7.3125 L 3.671875 -7.554688 L 3.96875 -7.710938 L 5 -7.667969 L 5.441406 -7.582031 L 5.613281 -7.46875 L 5.796875 -7.269531 L 5.839844 -6.882812 L 5.769531 -6.457031 L 5.527344 -6.226562 L 5.042969 -6.125 Z M 3.925781 -2.269531 L 3.683594 -2.386719 L 3.527344 -2.683594 L 3.542969 -2.929688 L 3.511719 -3.199219 L 3.527344 -3.484375 L 3.628906 -3.742188 L 3.914062 -3.882812 L 5.425781 -3.882812 L 5.828125 -3.8125 L 6.042969 -3.65625 L 6.253906 -3.457031 L 6.285156 -3.054688 L 6.253906 -2.683594 L 6.070312 -2.484375 L 5.8125 -2.328125 L 5.042969 -2.257812 Z M 3.925781 -2.269531 "/></g></g></g></svg>